# xmcd
#
# Track frame offsets: 
#        150
#        17582
#        33444
#        46561
#        62017
#        76910
#        95283
#        113019
#        128834
#        144117
#
# Disc length: 2093 seconds
#
# Revision: 0
# Processed by: cddbd v1.5.2PL0 Copyright (c) Steve Scherf et al.
# Submitted via: ExactAudioCopyFreeDBPlugin 1.0
#
DISCID=6b082b0a
DTITLE=Anderhub Fabian - Make the change
DYEAR=2012
DGENRE=Blues
TTITLE0=Make the change
TTITLE1=Love is a healing
TTITLE2=End of me
TTITLE3=Kokanee
TTITLE4=Annabelle
TTITLE5=Waiting for me
TTITLE6=That train
TTITLE7=Up in smoke
TTITLE8=Twister girl
TTITLE9=Palace of the king
EXTD=
EXTT0=
EXTT1=
EXTT2=
EXTT3=
EXTT4=
EXTT5=
EXTT6=
EXTT7=
EXTT8=
EXTT9=
PLAYORDER=
